<?xml version="1.0" encoding="utf-8"?>
<!-- Generator: Adobe Illustrator 22.1.0, SVG Export Plug-In . SVG Version: 6.00 Build 0)  -->
<svg version="1.1" id="Layer_1" xmlns="http://www.w3.org/2000/svg" xmlns:xlink="http://www.w3.org/1999/xlink" x="0px" y="0px"
	 viewBox="0 0 512 512" style="enable-background:new 0 0 512 512;" xml:space="preserve">
<style type="text/css">
	.st0{fill:#F6DC96;}
	.st1{fill:#FFFFFF;stroke:#FFFFFF;stroke-miterlimit:10;}
</style>
<path id="dribbble-circle-icon" class="st0" d="M462.4,256c0,113.8-92.2,206-206,206s-206-92.2-206-206s92.2-206,206-206
	S462.4,142.2,462.4,256z"/>
<path class="st1" d="M256.4,128.7c-34.6,0-38.9,0.2-52.5,0.8s-22.8,2.8-30.9,5.9c-8.4,3.2-15.5,7.6-22.6,14.7
	c-7.1,7.1-11.4,14.2-14.7,22.6c-3.2,8.1-5.3,17.3-5.9,30.9c-0.6,13.6-0.8,17.9-0.8,52.5s0.2,38.9,0.8,52.5
	c0.6,13.5,2.8,22.8,5.9,30.9c3.2,8.4,7.6,15.5,14.7,22.6c7.1,7.1,14.2,11.4,22.6,14.7c8.1,3.1,17.4,5.3,30.9,5.9
	c13.6,0.6,17.9,0.8,52.5,0.8s38.9-0.2,52.5-0.8c13.5-0.6,22.8-2.8,30.9-5.9c8.4-3.2,15.5-7.6,22.6-14.7s11.4-14.2,14.7-22.6
	c3.1-8.1,5.3-17.4,5.9-30.9c0.6-13.6,0.8-17.9,0.8-52.5s-0.2-38.9-0.8-52.5c-0.6-13.5-2.8-22.8-5.9-30.9
	c-3.2-8.4-7.6-15.5-14.7-22.6s-14.2-11.4-22.6-14.7c-8.1-3.2-17.4-5.3-30.9-5.9C295.3,128.8,291,128.7,256.4,128.7z M256.4,151.6
	c34,0,38,0.2,51.5,0.8c12.4,0.6,19.2,2.6,23.6,4.4c6,2.3,10.2,5.1,14.7,9.5c4.4,4.5,7.2,8.7,9.5,14.7c1.7,4.5,3.8,11.2,4.4,23.6
	c0.6,13.4,0.7,17.5,0.7,51.5s-0.2,38-0.8,51.5c-0.6,12.4-2.7,19.2-4.5,23.6c-2.4,6-5.1,10.2-9.5,14.7c-4.4,4.4-8.7,7.2-14.6,9.5
	c-4.5,1.7-11.3,3.8-23.7,4.4c-13.5,0.6-17.5,0.7-51.6,0.7s-38-0.2-51.6-0.8c-12.4-0.6-19.3-2.7-23.7-4.5c-6-2.4-10.2-5.1-14.6-9.5
	c-4.5-4.4-7.3-8.7-9.5-14.6c-1.8-4.5-3.8-11.3-4.5-23.7c-0.5-13.4-0.6-17.5-0.6-51.4s0.2-38,0.6-51.6c0.6-12.4,2.7-19.2,4.5-23.7
	c2.2-6,5.1-10.2,9.5-14.7c4.4-4.4,8.6-7.3,14.6-9.5c4.5-1.8,11.2-3.8,23.6-4.5c13.5-0.5,17.5-0.6,51.6-0.6
	C255.9,151.3,256.4,151.6,256.4,151.6z M256.4,190.6c-36.1,0-65.4,29.3-65.4,65.4s29.3,65.4,65.4,65.4s65.4-29.3,65.4-65.4
	S292.5,190.6,256.4,190.6z M256.4,298.4c-23.4,0-42.4-19-42.4-42.4s19-42.4,42.4-42.4s42.4,19,42.4,42.4S279.9,298.4,256.4,298.4z
	 M339.7,188c0,8.4-6.9,15.3-15.3,15.3s-15.3-6.9-15.3-15.3c0-8.4,6.9-15.3,15.3-15.3C332.8,172.8,339.7,179.6,339.7,188z"/>
</svg>
