<?xml version="1.0" encoding="utf-8"?>
<!-- Generator: Adobe Illustrator 22.1.0, SVG Export Plug-In . SVG Version: 6.00 Build 0)  -->
<svg version="1.1" id="Layer_1" xmlns="http://www.w3.org/2000/svg" xmlns:xlink="http://www.w3.org/1999/xlink" x="0px" y="0px"
	 viewBox="0 0 512 512" style="enable-background:new 0 0 512 512;" xml:space="preserve">
<style type="text/css">
	.st0{fill:#F6AB9C;}
	.st1{fill:#FFFFFF;stroke:#FFFFFF;stroke-miterlimit:10;}
</style>
<path id="behance-circle-icon" class="st0" d="M462.4,256c0,113.8-92.2,206-206,206s-206-92.2-206-206s92.2-206,206-206
	S462.4,142.2,462.4,256z"/>
<path class="st1" d="M381.1,197.9c-1.1,24.3-18.1,57.7-50.9,100c-34,44.2-62.7,66.3-86.3,66.3c-14.7,0-26.8-13.5-37-40.4l-20-74
	c-7.5-26.9-15.5-40.4-24.1-40.4c-1.9,0-8.4,3.9-19.6,11.8L131.5,206c12.3-10.9,24.5-21.7,36.4-32.6c16.4-14.2,28.8-21.7,37-22.5
	c19.4-1.9,31.4,11.4,35.9,39.9c4.8,30.7,8.2,49.8,10.1,57.3c5.6,25.5,11.8,38.2,18.5,38.2c5.2,0,13.1-8.3,23.6-24.8
	c10.4-16.5,16-29.1,16.8-37.8c1.5-14.3-4.1-21.5-16.8-21.5c-6,0-12.1,1.3-18.5,4.1c12.3-40.3,35.7-59.9,70.4-58.7
	c25.7,0.6,37.8,17.3,36.4,49.9C381.2,197.8,381.1,197.9,381.1,197.9z"/>
</svg>
