<?xml version="1.0" encoding="utf-8"?>
<!-- Generator: Adobe Illustrator 22.1.0, SVG Export Plug-In . SVG Version: 6.00 Build 0)  -->
<svg version="1.1" id="Layer_1" xmlns="http://www.w3.org/2000/svg" xmlns:xlink="http://www.w3.org/1999/xlink" x="0px" y="0px"
	 viewBox="0 0 512 512" style="enable-background:new 0 0 512 512;" xml:space="preserve">
<style type="text/css">
	.st0{fill:#C0E3D6;}
	.st1{fill:#FFFFFF;}
</style>
<path id="twitter-4-icon" class="st0" d="M256,50C142.2,50,50,142.2,50,256s92.2,206,206,206s206-92.2,206-206S369.8,50,256,50z"/>
<path class="st1" d="M121,154.7v202.5h270V154.7H121z M195.5,243.9l-52,64.3V201.8L195.5,243.9z M148.9,177.2h214.2L256,264
	L148.9,177.2z M213,258.1l43,34.9l43.1-34.9l63.1,76.7H150.9L213,258.1z M316.6,243.9l51.9-42.1V307L316.6,243.9z"/>
</svg>
